<?xml version="1.0" encoding="UTF-8" standalone="no"?>
<!DOCTYPE svg PUBLIC "-//W3C//DTD SVG 1.1//EN"
"http://www.w3.org/Graphics/SVG/1.1/DTD/svg11.dtd">
<svg viewBox="0 0 909 1286" version="1.1" xmlns="http://www.w3.org/2000/svg" xmlns:xlink="http://www.w3.org/1999/xlink">
<defs>
<clipPath id="c0"><path d="M-.2 1260.2v-83.8H909.4v83.8Z"/></clipPath>
<clipPath id="c1"><path d="M-.2 1260.2V-.2H909.4V1260.2Z"/></clipPath>
<style type="text/css"><![CDATA[
.g0{
fill: #FFF;
}
.g1{
fill: #DCDCDC;
}
.g2{
fill: #EEE;
}
]]></style>
</defs>
<g clip-path="url(#c1)">
<path fill-rule="evenodd" d="M0 0H909V1259.9H0V0Z" class="g0"/>
<path fill-rule="evenodd" d="M35 234.5H874v1.7H35v-1.7Z" class="g1"/>
<path fill-rule="evenodd" d="M35 265.1H874v1.7H35v-1.7Z" class="g1"/>
<path fill-rule="evenodd" d="M35 317.6H874v1.7H35v-1.7Z" class="g1"/>
<path fill-rule="evenodd" d="M35 370.1H874v1.7H35v-1.7Z" class="g1"/>
<path fill-rule="evenodd" d="M35 400.7H874v1.8H35v-1.8Z" class="g1"/>
<path fill-rule="evenodd" d="M35 431.3H874v1.8H35v-1.8Z" class="g1"/>
<path fill-rule="evenodd" d="M35 462H874v1.7H35V462Z" class="g1"/>
<path fill-rule="evenodd" d="M35 484.7H874v1.7H35v-1.7Z" class="g1"/>
<path fill-rule="evenodd" d="M35 515.3H874v1.8H35v-1.8Z" class="g1"/>
<path fill-rule="evenodd" d="M35 567.8H874v1.8H35v-1.8Z" class="g1"/>
<path fill-rule="evenodd" d="M35 598.4H874v1.8H35v-1.8Z" class="g1"/>
<path fill-rule="evenodd" d="M35 629.1H874v1.7H35v-1.7Z" class="g1"/>
<path fill-rule="evenodd" d="M35 659.7H874v1.7H35v-1.7Z" class="g1"/>
<path fill-rule="evenodd" d="M35 690.3H874v1.8H35v-1.8Z" class="g1"/>
<path fill-rule="evenodd" d="M35 720.9H874v1.8H35v-1.8Z" class="g1"/>
<path fill-rule="evenodd" d="M35 751.5H874v1.8H35v-1.8Z" class="g1"/>
<path fill-rule="evenodd" d="M35 782.2H874v1.7H35v-1.7Z" class="g1"/>
<path fill-rule="evenodd" d="M35 812.8H874v1.7H35v-1.7Z" class="g1"/>
<path fill-rule="evenodd" d="M35 843.4H874v1.8H35v-1.8Z" class="g1"/>
<path fill-rule="evenodd" d="M35 866.2H874v1.7H35v-1.7Z" class="g1"/>
<path fill-rule="evenodd" d="M35 918.7H874v1.7H35v-1.7Z" class="g1"/>
<path fill-rule="evenodd" d="M35 949.3H874V951H35v-1.7Z" class="g1"/>
<path fill-rule="evenodd" d="M35 979.9H874v1.7H35v-1.7Z" class="g1"/>
<path fill-rule="evenodd" d="M35 981.6H874v1.8H35v-1.8Z" class="g1"/>
<path fill-rule="evenodd" d="M35 1012.3H874v1.7H35v-1.7Z" class="g1"/>
<path fill-rule="evenodd" d="M35 1035H874v1.8H35V1035Z" class="g1"/>
<image clip-path="url(#c0)" preserveAspectRatio="none" x="0" y="1177" width="909" height="83" xlink:href="img/1.jpg"/>
<g clip-path="url(#c1)">
<image preserveAspectRatio="none" x="0" y="1173" width="909" height="4" xlink:href="img/2.jpg"/>
<image preserveAspectRatio="none" x="0" y="0" width="909" height="201" xlink:href="img/3.jpg"/>
<image preserveAspectRatio="none" x="29" y="31" width="144" height="144" xlink:href="img/4.jpg"/>
</g>
<path fill-rule="evenodd" d="M35 236.2H874v28.9H35V236.2Z" class="g2"/>
<path fill-rule="evenodd" d="M35 266.8H874v50.8H35V266.8Z" class="g2"/>
<path fill-rule="evenodd" d="M35 319.3H874v50.8H35V319.3Z" class="g2"/>
<path fill-rule="evenodd" d="M35 371.8H874v28.9H35V371.8Z" class="g2"/>
<path fill-rule="evenodd" d="M35 402.5H874v28.8H35V402.5Z" class="g2"/>
<path fill-rule="evenodd" d="M35 433.1H874V462H35V433.1Z" class="g2"/>
<path fill-rule="evenodd" d="M35 517.1H874v50.7H35V517.1Z" class="g2"/>
<path fill-rule="evenodd" d="M35 569.6H874v28.8H35V569.6Z" class="g2"/>
<path fill-rule="evenodd" d="M35 600.2H874v28.9H35V600.2Z" class="g2"/>
<path fill-rule="evenodd" d="M35 630.8H874v28.9H35V630.8Z" class="g2"/>
<path fill-rule="evenodd" d="M35 661.4H874v28.9H35V661.4Z" class="g2"/>
<path fill-rule="evenodd" d="M35 692.1H874v28.8H35V692.1Z" class="g2"/>
<path fill-rule="evenodd" d="M35 722.7H874v28.8H35V722.7Z" class="g2"/>
<path fill-rule="evenodd" d="M35 753.3H874v28.9H35V753.3Z" class="g2"/>
<path fill-rule="evenodd" d="M35 783.9H874v28.9H35V783.9Z" class="g2"/>
<path fill-rule="evenodd" d="M35 814.5H874v28.9H35V814.5Z" class="g2"/>
<path fill-rule="evenodd" d="M35 920.4H874v28.9H35V920.4Z" class="g2"/>
<path fill-rule="evenodd" d="M35 951H874v28.9H35V951Z" class="g2"/>
<path fill-rule="evenodd" d="M35 983.4H874v28.9H35V983.4Z" class="g2"/>
<g clip-path="url(#c1)">
<image preserveAspectRatio="none" x="46" y="1058" width="165" height="79" xlink:href="img/5.png"/>
<image preserveAspectRatio="none" x="602" y="1058" width="87" height="87" xlink:href="img/6.jpg"/>
</g>
</g>
</svg>